<svg width="10" height="16" viewBox="0 0 10 16" fill="none" xmlns="http://www.w3.org/2000/svg">
<path d="M7.76721 15.6805C8.14301 16.0852 8.77574 16.1086 9.18045 15.7328C9.58516 15.357 9.6086 14.7243 9.23279 14.3195L7.76721 15.6805ZM2 8L1.26721 7.31955L0.635359 8L1.26721 8.68045L2 8ZM9.23279 1.68045C9.6086 1.27574 9.58516 0.643008 9.18045 0.267205C8.77574 -0.108597 8.14301 -0.0851631 7.76721 0.319548L9.23279 1.68045ZM9.23279 14.3195L2.73279 7.31955L1.26721 8.68045L7.76721 15.6805L9.23279 14.3195ZM2.73279 8.68045L9.23279 1.68045L7.76721 0.319548L1.26721 7.31955L2.73279 8.68045Z" fill="#007CFF"/>
</svg>
