<svg width="10" height="16" viewBox="0 0 10 16" fill="none" xmlns="http://www.w3.org/2000/svg">
<path d="M2.23279 0.319549C1.85699 -0.0851618 1.22426 -0.108596 0.819549 0.267206C0.414838 0.643009 0.391404 1.27574 0.767206 1.68045L2.23279 0.319549ZM8 8L8.73279 8.68045L9.36464 8L8.73279 7.31955L8 8ZM0.767206 14.3195C0.391404 14.7243 0.414838 15.357 0.819549 15.7328C1.22426 16.1086 1.85699 16.0852 2.23279 15.6805L0.767206 14.3195ZM0.767206 1.68045L7.26721 8.68045L8.73279 7.31955L2.23279 0.319549L0.767206 1.68045ZM7.26721 7.31955L0.767206 14.3195L2.23279 15.6805L8.73279 8.68045L7.26721 7.31955Z" fill="#007CFF"/>
</svg>
